<svg width="20" height="17" viewBox="0 0 20 17" fill="none" xmlns="http://www.w3.org/2000/svg">
<path d="M16.5 15.5C16.5 15.8978 16.658 16.2794 16.9393 16.5607C17.2206 16.842 17.6022 17 18 17C18.3978 17 18.7794 16.842 19.0607 16.5607C19.342 16.2794 19.5 15.8978 19.5 15.5V1.5C19.5 1.10218 19.342 0.720644 19.0607 0.43934C18.7794 0.158035 18.3978 0 18 0C17.6022 0 17.2206 0.158035 16.9393 0.43934C16.658 0.720644 16.5 1.10218 16.5 1.5V15.5ZM8.944 3.197C8.66279 3.47829 8.50482 3.85975 8.50482 4.2575C8.50482 4.65525 8.66279 5.03671 8.944 5.318L10.626 7H2C1.60218 7 1.22064 7.15804 0.93934 7.43934C0.658035 7.72064 0.5 8.10218 0.5 8.5C0.5 8.89782 0.658035 9.27936 0.93934 9.56066C1.22064 9.84196 1.60218 10 2 10H10.626L8.944 11.682C8.80073 11.8204 8.68646 11.9859 8.60785 12.1689C8.52923 12.3519 8.48785 12.5487 8.48612 12.7479C8.48439 12.9471 8.52235 13.1446 8.59777 13.3289C8.67319 13.5133 8.78457 13.6808 8.92541 13.8216C9.06625 13.9624 9.23372 14.0738 9.41807 14.1492C9.60241 14.2247 9.79993 14.2626 9.9991 14.2609C10.1983 14.2591 10.3951 14.2178 10.5781 14.1392C10.7611 14.0605 10.9266 13.9463 11.065 13.803L15.308 9.561C15.5892 9.27971 15.7472 8.89825 15.7472 8.5005C15.7472 8.10275 15.5892 7.72129 15.308 7.44L11.065 3.197C10.7837 2.91579 10.4022 2.75782 10.0045 2.75782C9.60675 2.75782 9.22529 2.91579 8.944 3.197Z" fill="white"/>
</svg>
