<svg width="56" height="40" viewBox="0 0 56 40" fill="none" xmlns="http://www.w3.org/2000/svg">
<path d="M31.216 2.32331C30.2083 3.26095 29.6422 4.53249 29.6422 5.85831C29.6422 7.18413 30.2083 8.45567 31.216 9.39331L37.2431 15H6.33331C4.90777 15 3.54062 15.5268 2.53261 16.4644C1.52461 17.4021 0.958313 18.6739 0.958313 20C0.958313 21.3261 1.52461 22.5978 2.53261 23.5355C3.54062 24.4732 4.90777 25 6.33331 25H37.2431L31.216 30.6066C30.7026 31.0679 30.2931 31.6196 30.0114 32.2296C29.7297 32.8396 29.5815 33.4957 29.5753 34.1596C29.5691 34.8235 29.7051 35.4819 29.9753 36.0964C30.2456 36.7109 30.6447 37.2692 31.1494 37.7386C31.654 38.2081 32.2542 38.5793 32.9147 38.8308C33.5753 39.0822 34.2831 39.2087 34.9968 39.2029C35.7104 39.1971 36.4158 39.0592 37.0715 38.7972C37.7273 38.5351 38.3204 38.1542 38.8162 37.6766L54.0203 23.5366C55.028 22.599 55.594 21.3275 55.594 20.0016C55.594 18.6758 55.028 17.4043 54.0203 16.4666L38.8162 2.32331C37.8083 1.38595 36.4414 0.859375 35.0161 0.859375C33.5908 0.859375 32.2239 1.38595 31.216 2.32331Z" fill="#FFC700"/>
</svg>
