<svg width="26" height="20" viewBox="0 0 26 20" fill="none" xmlns="http://www.w3.org/2000/svg">
<path d="M16.525 0.325012C16.2768 0.769621 16.0555 1.22879 15.8625 1.70001C13.966 1.40008 12.0341 1.40008 10.1375 1.70001C9.94451 1.22879 9.72327 0.769621 9.47502 0.325012C7.68851 0.630263 5.95177 1.17693 4.31252 1.95001C1.38119 6.18037 0.051815 11.3162 0.562518 16.4375C2.47282 17.8736 4.61684 18.9689 6.90002 19.675C7.41991 18.9883 7.8839 18.2609 8.28752 17.5C7.54261 17.2254 6.82664 16.8778 6.15002 16.4625C6.3356 16.339 6.51114 16.2011 6.67502 16.05C8.64809 17.0004 10.81 17.4939 13 17.4939C15.1901 17.4939 17.3519 17.0004 19.325 16.05C19.5 16.2 19.675 16.3375 19.85 16.4625C19.1697 16.8746 18.4545 17.2259 17.7125 17.5125C18.0994 18.2907 18.551 19.035 19.0625 19.7375C21.3428 19.0338 23.4832 17.9382 25.3875 16.5C25.9105 11.3778 24.58 6.23774 21.6375 2.01251C20.0167 1.22343 18.2971 0.65585 16.525 0.325012ZM8.85002 13.5125C8.2245 13.4676 7.6407 13.1821 7.22117 12.716C6.80164 12.2498 6.57901 11.6393 6.60002 11.0125C6.57584 10.3849 6.79738 9.77262 7.21753 9.30577C7.63769 8.83893 8.22334 8.55435 8.85002 8.51251C9.47669 8.55435 10.0623 8.83893 10.4825 9.30577C10.9027 9.77262 11.1242 10.3849 11.1 11.0125C11.1242 11.6401 10.9027 12.2524 10.4825 12.7192C10.0623 13.1861 9.47669 13.4707 8.85002 13.5125ZM17.15 13.5125C16.5245 13.4676 15.9407 13.1821 15.5212 12.716C15.1016 12.2498 14.879 11.6393 14.9 11.0125C14.8758 10.3849 15.0974 9.77262 15.5175 9.30577C15.9377 8.83893 16.5233 8.55435 17.15 8.51251C17.7779 8.55123 18.3654 8.83489 18.7862 9.30245C19.207 9.77 19.4274 10.3841 19.4 11.0125C19.4274 11.6409 19.207 12.255 18.7862 12.7226C18.3654 13.1901 17.7779 13.4738 17.15 13.5125Z" fill="white"/>
</svg>
