<svg width="46" height="42" viewBox="0 0 46 42" fill="none" xmlns="http://www.w3.org/2000/svg">
<path d="M44.2158 20.6582L25.3486 1.80078L24.0839 0.536134C23.7958 0.249887 23.4061 0.0892334 23 0.0892334C22.5938 0.0892334 22.2041 0.249887 21.916 0.536134L1.78414 20.6582C1.48888 20.9523 1.25553 21.3026 1.09787 21.6884C0.940206 22.0741 0.861423 22.4876 0.866169 22.9043C0.8857 24.623 2.31636 25.9951 4.03511 25.9951H6.11031V41.8984H39.8896V25.9951H42.0087C42.8437 25.9951 43.6298 25.668 44.2207 25.0771C44.5116 24.7872 44.7421 24.4424 44.8988 24.0627C45.0555 23.683 45.1354 23.276 45.1337 22.8652C45.1337 22.0352 44.8066 21.249 44.2158 20.6582ZM25.7343 38.3828H20.2656V28.4219H25.7343V38.3828ZM36.374 22.4795V38.3828H28.8593V27.25C28.8593 26.1709 27.9853 25.2969 26.9062 25.2969H19.0937C18.0146 25.2969 17.1406 26.1709 17.1406 27.25V38.3828H9.62593V22.4795H4.93844L23.0048 4.42774L24.1328 5.55567L41.0664 22.4795H36.374Z" fill="white"/>
</svg>
