<svg width="24" height="24" viewBox="0 0 24 24" fill="none" xmlns="http://www.w3.org/2000/svg">
<path d="M11.9987 6.22122C10.4657 6.22122 8.99557 6.83019 7.91161 7.91415C6.82765 8.99811 6.21869 10.4683 6.21869 12.0012C6.21869 13.5342 6.82765 15.0043 7.91161 16.0883C8.99557 17.1723 10.4657 17.7812 11.9987 17.7812C13.5316 17.7812 15.0018 17.1723 16.0858 16.0883C17.1697 15.0043 17.7787 13.5342 17.7787 12.0012C17.7787 10.4683 17.1697 8.99811 16.0858 7.91415C15.0018 6.83019 13.5316 6.22122 11.9987 6.22122ZM11.9987 15.755C11.0028 15.755 10.0477 15.3594 9.34351 14.6552C8.63931 13.951 8.24369 12.9959 8.24369 12C8.24369 11.0041 8.63931 10.049 9.34351 9.34479C10.0477 8.64059 11.0028 8.24498 11.9987 8.24498C12.9946 8.24498 13.9497 8.64059 14.6539 9.34479C15.3581 10.049 15.7537 11.0041 15.7537 12C15.7537 12.9959 15.3581 13.951 14.6539 14.6552C13.9497 15.3594 12.9946 15.755 11.9987 15.755Z" fill="white"/>
<path d="M18.0074 7.35623C18.7516 7.35623 19.3549 6.75293 19.3549 6.00873C19.3549 5.26452 18.7516 4.66123 18.0074 4.66123C17.2632 4.66123 16.6599 5.26452 16.6599 6.00873C16.6599 6.75293 17.2632 7.35623 18.0074 7.35623Z" fill="white"/>
<path d="M22.6662 4.63873C22.3768 3.89145 21.9346 3.21283 21.3679 2.6463C20.8011 2.07977 20.1223 1.63781 19.3749 1.34873C18.5004 1.02042 17.5764 0.842902 16.6424 0.823725C15.4387 0.771225 15.0574 0.756226 12.0049 0.756226C8.95244 0.756226 8.56119 0.756225 7.36744 0.823725C6.43418 0.841922 5.51089 1.01948 4.63744 1.34873C3.88986 1.63748 3.2109 2.07931 2.64411 2.64589C2.07732 3.21246 1.63523 3.89126 1.34619 4.63873C1.01782 5.51324 0.84071 6.43727 0.822441 7.37123C0.768691 8.57373 0.752441 8.95498 0.752441 12.0087C0.752441 15.0612 0.752441 15.45 0.822441 16.6462C0.841191 17.5812 1.01744 18.5037 1.34619 19.38C1.63604 20.1272 2.07856 20.8057 2.64549 21.3722C3.21241 21.9387 3.89127 22.3807 4.63869 22.67C5.51048 23.0115 6.43416 23.2017 7.36994 23.2325C8.57369 23.285 8.95494 23.3012 12.0074 23.3012C15.0599 23.3012 15.4512 23.3012 16.6449 23.2325C17.5788 23.2135 18.5027 23.0364 19.3774 22.7087C20.1246 22.419 20.8032 21.9766 21.3699 21.4099C21.9366 20.8433 22.3789 20.1647 22.6687 19.4175C22.9974 18.5425 23.1737 17.62 23.1924 16.685C23.2462 15.4825 23.2624 15.1012 23.2624 12.0475C23.2624 8.99373 23.2624 8.60623 23.1924 7.40998C23.1779 6.46282 22.9999 5.52529 22.6662 4.63873ZM21.1437 16.5537C21.1356 17.2741 21.0041 17.9878 20.7549 18.6637C20.5672 19.1498 20.2798 19.5912 19.9113 19.9596C19.5427 20.3279 19.1011 20.615 18.6149 20.8025C17.9465 21.0505 17.2404 21.182 16.5274 21.1912C15.3399 21.2462 15.0049 21.26 11.9599 21.26C8.91244 21.26 8.60119 21.26 7.39119 21.1912C6.6786 21.1825 5.97285 21.051 5.30494 20.8025C4.81705 20.6162 4.37369 20.3296 4.00355 19.9612C3.63341 19.5928 3.34474 19.1507 3.15619 18.6637C2.9105 17.995 2.77908 17.2898 2.76744 16.5775C2.71369 15.39 2.70119 15.055 2.70119 12.01C2.70119 8.96373 2.70119 8.65247 2.76744 7.44123C2.77552 6.72125 2.90701 6.008 3.15619 5.33248C3.53744 4.34623 4.31869 3.56998 5.30494 3.19248C5.97318 2.94515 6.67872 2.81368 7.39119 2.80373C8.57994 2.74998 8.91369 2.73498 11.9599 2.73498C15.0062 2.73498 15.3187 2.73498 16.5274 2.80373C17.2405 2.8123 17.9466 2.94381 18.6149 3.19248C19.1011 3.38032 19.5426 3.66773 19.9112 4.03626C20.2797 4.4048 20.5671 4.84631 20.7549 5.33248C21.0006 6.00116 21.1321 6.70643 21.1437 7.41873C21.1974 8.60748 21.2112 8.94123 21.2112 11.9875C21.2112 15.0325 21.2112 15.36 21.1574 16.555H21.1437V16.5537Z" fill="white"/>
</svg>
