<svg width="42" height="38" viewBox="0 0 42 38" fill="none" xmlns="http://www.w3.org/2000/svg">
<path d="M35.5833 6.5H29.3333V4.41667C29.3333 3.3116 28.8943 2.25179 28.1129 1.47039C27.3315 0.688987 26.2717 0.25 25.1666 0.25H16.8333C15.7282 0.25 14.6684 0.688987 13.887 1.47039C13.1056 2.25179 12.6666 3.3116 12.6666 4.41667V6.5H6.41663C4.75902 6.5 3.16931 7.15848 1.99721 8.33058C0.825106 9.50268 0.166626 11.0924 0.166626 12.75V31.5C0.166626 33.1576 0.825106 34.7473 1.99721 35.9194C3.16931 37.0915 4.75902 37.75 6.41663 37.75H35.5833C37.2409 37.75 38.8306 37.0915 40.0027 35.9194C41.1748 34.7473 41.8333 33.1576 41.8333 31.5V12.75C41.8333 11.0924 41.1748 9.50268 40.0027 8.33058C38.8306 7.15848 37.2409 6.5 35.5833 6.5ZM16.8333 4.41667H25.1666V6.5H16.8333V4.41667ZM37.6666 31.5C37.6666 32.0525 37.4471 32.5824 37.0564 32.9731C36.6657 33.3638 36.1358 33.5833 35.5833 33.5833H6.41663C5.86409 33.5833 5.33419 33.3638 4.94349 32.9731C4.55279 32.5824 4.33329 32.0525 4.33329 31.5V19.8125L14.0833 23.1667C14.3045 23.1967 14.5287 23.1967 14.75 23.1667H27.25C27.4759 23.1625 27.7002 23.1274 27.9166 23.0625L37.6666 19.8125V31.5ZM37.6666 15.4167L26.9166 19H15.0833L4.33329 15.4167V12.75C4.33329 12.1975 4.55279 11.6676 4.94349 11.2769C5.33419 10.8862 5.86409 10.6667 6.41663 10.6667H35.5833C36.1358 10.6667 36.6657 10.8862 37.0564 11.2769C37.4471 11.6676 37.6666 12.1975 37.6666 12.75V15.4167Z" fill="white"/>
</svg>
