<svg width="24" height="24" viewBox="0 0 24 24" fill="none" xmlns="http://www.w3.org/2000/svg">
<path d="M3.22877 5.99624C4.73927 5.99624 5.96377 4.77174 5.96377 3.26124C5.96377 1.75075 4.73927 0.526245 3.22877 0.526245C1.71828 0.526245 0.493774 1.75075 0.493774 3.26124C0.493774 4.77174 1.71828 5.99624 3.22877 5.99624Z" fill="white"/>
<path d="M8.54627 8.06872V23.2425H13.2575V15.7387C13.2575 13.7587 13.63 11.8412 16.085 11.8412C18.5063 11.8412 18.5363 14.105 18.5363 15.8637V23.2437H23.25V14.9225C23.25 10.835 22.37 7.69373 17.5925 7.69373C15.2988 7.69373 13.7613 8.95248 13.1325 10.1437H13.0688V8.06872H8.54627ZM0.868774 8.06872H5.58752V23.2425H0.868774V8.06872Z" fill="white"/>
</svg>
