<svg width="26" height="19" viewBox="0 0 26 19" fill="none" xmlns="http://www.w3.org/2000/svg">
<path d="M21.4124 0.762497L19.8124 2.0125L12.9999 7.075L6.18744 1.9625L4.58744 0.712497C4.21051 0.400679 3.75038 0.206297 3.26405 0.153435C2.77772 0.100573 2.28657 0.191552 1.85145 0.415102C1.41633 0.638652 1.05635 0.984949 0.816115 1.41109C0.575882 1.83723 0.46595 2.32449 0.499939 2.8125V17.3C0.499939 17.7509 0.679046 18.1833 0.997858 18.5021C1.31667 18.8209 1.74907 19 2.19994 19H6.18744V9.35L12.9999 14.4625L19.8124 9.35V19H23.7999C24.2508 19 24.6832 18.8209 25.002 18.5021C25.3208 18.1833 25.4999 17.7509 25.4999 17.3V2.8125C25.5234 2.3287 25.4058 1.8485 25.1615 1.43028C24.9172 1.01205 24.5566 0.673805 24.1236 0.45666C23.6907 0.239516 23.204 0.152822 22.7226 0.207116C22.2413 0.261411 21.7861 0.454356 21.4124 0.762497Z" fill="white"/>
</svg>
