<svg width="44" height="47" viewBox="0 0 44 47" fill="none" xmlns="http://www.w3.org/2000/svg">
<path d="M9.63086 0.441406V0.451172C7.18945 0.763672 5.03125 3.57617 5.03125 7.16992C5.03125 9.16211 5.72461 10.9199 6.74023 12.1406L7.73633 13.332L6.20312 13.6152C4.86523 13.8691 3.87891 14.582 3.05859 15.7148C2.22852 16.8379 1.60352 18.4004 1.16406 20.1875C0.363281 23.4688 0.197266 27.4824 0.177734 30.9785H4.47461L5.63672 46.4473H15.041L16.0664 30.9785H20.1582C20.1582 27.4434 20.1289 23.3809 19.3965 20.0703C19.0059 18.2637 18.4004 16.7109 17.5703 15.5879C16.7305 14.4746 15.6953 13.7617 14.2012 13.5371L12.6387 13.293L13.625 12.0625C14.6016 10.8418 15.2559 9.11328 15.2559 7.16992C15.2559 3.3418 12.834 0.451172 10.1387 0.451172C9.85547 0.451172 9.67969 0.441406 9.63086 0.441406ZM40.9688 1.22266C39.2891 1.22266 37.9414 2.56738 37.9414 4.25C37.9414 5.93262 39.2891 7.27734 40.9688 7.27734C42.6484 7.27734 43.9961 5.93262 43.9961 4.25C43.9961 2.56738 42.6484 1.22266 40.9688 1.22266ZM28.3711 3.37109V8.05859H18.3125V9.81641H28.3711V25.2461H23V27.0039H28.3711V37.7461H18.3125V39.5039H28.3711V42.6289H36.2617C36.2129 42.3457 36.1836 42.0527 36.1836 41.75C36.1836 41.4473 36.2129 41.1543 36.2617 40.8711H30.1289V27.0039H36.2617C36.2129 26.7207 36.1836 26.4277 36.1836 26.125C36.1836 25.8223 36.2129 25.5293 36.2617 25.2461H30.1289V5.12891H36.2617C36.2129 4.84375 36.1836 4.5498 36.1836 4.25C36.1836 3.9502 36.2129 3.65625 36.2617 3.37109H28.3711ZM40.9688 23.0977C39.2891 23.0977 37.9414 24.4453 37.9414 26.125C37.9414 27.8047 39.2891 29.1523 40.9688 29.1523C42.6484 29.1523 43.9961 27.8047 43.9961 26.125C43.9961 24.4453 42.6484 23.0977 40.9688 23.0977ZM40.9688 38.7227C39.2891 38.7227 37.9414 40.0703 37.9414 41.75C37.9414 43.4297 39.2891 44.7773 40.9688 44.7773C42.6484 44.7773 43.9961 43.4297 43.9961 41.75C43.9961 40.0703 42.6484 38.7227 40.9688 38.7227Z" fill="white"/>
</svg>
