<svg width="34" height="34" viewBox="0 0 34 34" fill="none" xmlns="http://www.w3.org/2000/svg">
<path d="M17 0.333332C19.2102 0.333332 21.3298 1.21131 22.8926 2.77411C24.4554 4.33691 25.3334 6.45653 25.3334 8.66667C25.3334 10.8768 24.4554 12.9964 22.8926 14.5592C21.3298 16.122 19.2102 17 17 17C14.7899 17 12.6703 16.122 11.1075 14.5592C9.54468 12.9964 8.66671 10.8768 8.66671 8.66667C8.66671 6.45653 9.54468 4.33691 11.1075 2.77411C12.6703 1.21131 14.7899 0.333332 17 0.333332ZM17 21.1667C26.2084 21.1667 33.6667 24.8958 33.6667 29.5V33.6667H0.333374V29.5C0.333374 24.8958 7.79171 21.1667 17 21.1667Z" fill="white"/>
</svg>
